<svg width="162" height="45" viewBox="0 0 162 45" fill="none" xmlns="http://www.w3.org/2000/svg">
<path d="M0.107422 30.1846C0.107422 30.1846 3.50224 34.0391 16.0577 31.5961C28.667 29.2074 40.5758 19.7611 40.5758 19.7611L37.666 16.721L52.8079 13.4636L48.8743 29.8588L46.18 26.6015C46.18 26.6015 30.6069 38.5993 15.4649 39.9566C2.37063 41.1509 0.107422 30.1846 0.107422 30.1846Z" fill="url(#paint0_linear_661_773)"/>
<path d="M28.1283 39.1965C18.6444 42.7796 10.8848 41.8567 10.8848 41.8567C10.8848 41.8567 17.9977 47.2313 29.5832 43.6482C38.4744 40.9338 42.6236 31.4332 42.6236 31.4332C42.6236 31.4332 37.6122 35.6135 28.1283 39.1965Z" fill="url(#paint1_radial_661_773)"/>
<path d="M23.7638 26.9273C28.2902 25.2443 33.571 22.2041 35.7265 20.9012C33.5171 19.8697 29.4757 18.8382 25.2726 17.861C20.6923 16.8295 17.8363 15.798 16.6508 14.8208C15.7347 14.0608 15.2498 13.1379 15.2498 12.0521C15.2498 10.8578 15.7347 9.93485 16.7586 9.2291C18.3213 8.14332 20.4228 7.60043 23.171 7.60043C25.8114 7.60043 27.8052 8.08903 29.0985 9.12052C30.3917 10.152 31.2539 11.835 31.685 14.1694L41.0612 13.7894C40.8995 9.60912 39.3907 6.2975 36.427 3.80022C33.4632 1.24864 29.0985 0 23.2788 0C19.7223 0 16.6508 0.542888 14.1182 1.57438C11.5855 2.60586 9.64562 4.18024 8.29847 6.18892C6.95132 8.19761 6.30469 10.3692 6.30469 12.6493C6.30469 16.2324 7.70572 19.2725 10.5617 21.7698C12.6094 23.5613 16.1119 25.0271 21.1233 26.2758C22.0933 26.4929 23.0094 26.7101 23.7638 26.9273Z" fill="url(#paint2_radial_661_773)"/>
<path d="M9.59171 23.9414C8.89119 23.3985 8.35233 22.8556 7.86736 22.367C6.19689 22.747 4.47254 23.3985 3.01762 24.43C-0.862176 27.1987 0.107772 30.1846 0.107772 30.1846C0.107772 30.1846 2.04767 32.0847 6.68186 32.3561C6.08912 32.0304 4.41865 31.4332 5.92746 27.8502C6.73575 26.0586 8.0829 24.81 9.59171 23.9414Z" fill="url(#paint3_linear_661_773)"/>
<path d="M62.8081 26.3216L67.2806 25.8873C67.5501 27.3531 68.0889 28.4389 68.8972 29.0903C69.7055 29.7961 70.8371 30.1218 72.1843 30.1218C73.6392 30.1218 74.7708 29.7961 75.5252 29.1989C76.2796 28.6017 76.6568 27.896 76.6568 27.0816C76.6568 26.5387 76.4952 26.1044 76.1718 25.7244C75.8485 25.3444 75.3097 25.0187 74.5014 24.7472C73.9625 24.5844 72.7231 24.2586 70.8371 23.77C68.4123 23.1728 66.6879 22.4671 65.6641 21.5985C64.263 20.4041 63.5625 18.884 63.5625 17.1468C63.5625 16.0067 63.8858 14.9752 64.5325 13.998C65.1791 13.0208 66.149 12.2608 67.3345 11.7722C68.5739 11.2836 70.0288 11.0121 71.8071 11.0121C74.663 11.0121 76.7646 11.6093 78.2195 12.858C79.6744 14.0523 80.4288 15.681 80.4827 17.744L75.9024 17.9611C75.6869 16.8211 75.3097 16.0067 74.663 15.5181C74.0164 15.0295 73.0464 14.7581 71.7532 14.7581C70.406 14.7581 69.3822 15.0295 68.6278 15.5724C68.1428 15.8981 67.9273 16.3867 67.9273 16.9296C67.9273 17.4725 68.1428 17.9068 68.6278 18.2868C69.2205 18.7754 70.6216 19.264 72.8309 19.7526C75.0402 20.2412 76.7107 20.7841 77.7884 21.327C78.8661 21.8699 79.6744 22.63 80.2672 23.5529C80.8599 24.4758 81.1832 25.6701 81.1832 27.0816C81.1832 28.3303 80.806 29.5246 80.1055 30.6104C79.405 31.6962 78.3812 32.5105 77.034 33.0534C75.7407 33.5963 74.0703 33.8677 72.1304 33.8677C69.2744 33.8677 67.0651 33.2163 65.5563 31.9133C64.0475 30.6647 63.1314 28.7646 62.8081 26.3216Z" fill="#002856"/>
<path d="M84.9551 33.4877V11.4465H89.5354V33.542H84.9551V33.4877Z" fill="#002856"/>
<path d="M98.9657 33.4877V15.1381H92.23V11.4465H110.228V15.1381H103.546V33.4877H98.9657Z" fill="#002856"/>
<path d="M109.635 33.4877V29.2532H113.946V33.4877H109.635Z" fill="#002856"/>
<path d="M132.914 25.3987L137.333 26.7559C136.632 29.1446 135.501 30.9361 133.938 32.1305C132.375 33.3248 130.327 33.8677 127.903 33.8677C124.885 33.8677 122.406 32.8905 120.52 30.8818C118.58 28.8731 117.61 26.1587 117.61 22.6842C117.61 18.9926 118.58 16.1696 120.52 14.1066C122.46 12.0979 125.047 11.0664 128.172 11.0664C130.92 11.0664 133.183 11.8807 134.908 13.4551C135.932 14.378 136.686 15.7352 137.225 17.5268L132.698 18.5583C132.429 17.4182 131.89 16.4953 131.028 15.8438C130.166 15.1924 129.142 14.8666 127.956 14.8666C126.286 14.8666 124.939 15.4638 123.861 16.6039C122.837 17.7982 122.298 19.6983 122.298 22.3042C122.298 25.0729 122.837 27.0816 123.861 28.276C124.885 29.4703 126.232 30.0675 127.849 30.0675C129.088 30.0675 130.112 29.6875 130.974 28.9274C131.89 28.1674 132.537 27.0273 132.914 25.3987Z" fill="#002856"/>
<path d="M161.689 33.4877H156.732L154.738 28.4931H145.685L143.799 33.4877H138.949L147.787 11.3922H152.636L161.689 33.4877ZM153.283 24.7472L150.158 16.5496L147.086 24.7472H153.283Z" fill="#002856"/>
<defs>
<linearGradient id="paint0_linear_661_773" x1="0.105374" y1="26.7577" x2="52.8295" y2="26.7577" gradientUnits="userSpaceOnUse">
<stop offset="1.1e-07" stop-color="#F8AF00"/>
<stop offset="1" stop-color="#E08700"/>
</linearGradient>
<radialGradient id="paint1_radial_661_773" cx="0" cy="0" r="1" gradientUnits="userSpaceOnUse" gradientTransform="translate(27.1587 25.7315) scale(50.1178 48.912)">
<stop stop-color="#00569D"/>
<stop offset="1" stop-color="#132F55"/>
</radialGradient>
<radialGradient id="paint2_radial_661_773" cx="0" cy="0" r="1" gradientUnits="userSpaceOnUse" gradientTransform="translate(27.1589 25.7314) scale(50.1177 48.9119)">
<stop stop-color="#00569D"/>
<stop offset="1" stop-color="#132F55"/>
</radialGradient>
<linearGradient id="paint3_linear_661_773" x1="11.5023" y1="18.9129" x2="1.87339" y2="31.8838" gradientUnits="userSpaceOnUse">
<stop offset="1.1e-07" stop-color="#F8AF00"/>
<stop offset="1" stop-color="#E08700"/>
</linearGradient>
</defs>
</svg>
